<?xml version="1.0" encoding="UTF-8"?>
<svg version="1.1" xmlns="http://www.w3.org/2000/svg" width="500" height="137">
<path d="M0 0 C1.86328125 2.140625 1.86328125 2.140625 3 4 C1.26051509 8.14533967 -0.60274765 9.2076338 -4.55859375 11.05078125 C-8.93122752 12.75086126 -13.44611226 13.89501253 -18 15 C-17.21496094 15.49628906 -16.42992187 15.99257813 -15.62109375 16.50390625 C-3.18851477 24.54313217 -3.18851477 24.54313217 1 30 C1 30.66 1 31.32 1 32 C2.485 32.495 2.485 32.495 4 33 C5.30453916 35.15841933 6.42186553 37.23246243 7.5 39.5 C7.80824707 40.13421875 8.11649414 40.7684375 8.43408203 41.421875 C17.07846742 59.52953912 16.90221967 78.08055614 11 97 C10.66484375 98.1034375 10.3296875 99.206875 9.984375 100.34375 C8.04906586 106.42615016 5.69252383 112.21828588 3 118 C1.21911524 121.9575217 0.31400617 125.87058078 -0.53515625 130.109375 C-1 132 -1 132 -2 133 C-4.5625 133.4375 -4.5625 133.4375 -8 133 C-9.54296875 131.90625 -9.54296875 131.90625 -11.25 130.4375 C-15.43157023 126.99052995 -19.84060923 125.42523525 -24.875 123.625 C-34.88588436 119.97244889 -42.73126065 114.77623509 -49 106 C-49 105.34 -49 104.68 -49 104 C-50.485 103.505 -50.485 103.505 -52 103 C-54.26748612 100.18227058 -56.09130504 97.06898058 -58 94 C-59.0828125 92.3603125 -59.0828125 92.3603125 -60.1875 90.6875 C-67.08079991 78.3657264 -68.65417396 57.93722732 -65.0234375 44.34375 C-63.81511684 41.46750206 -62.47664378 38.74655743 -61 36 C-60.27958287 34.38032093 -59.5703605 32.75559342 -58.875 31.125 C-57.79935327 28.69612029 -56.68564928 26.44384103 -55.375 24.125 C-54.04167875 21.09472444 -53.59801874 18.74981393 -53.125 15.5 C-52.24377602 10.34553908 -51.09506858 7.49787108 -47 4 C-44.59426665 2.79072373 -42.20138197 1.83605141 -39.66015625 0.9453125 C-37.01102298 0.05524782 -37.01102298 0.05524782 -34.62109375 -1.1328125 C-23.64537107 -6.30424032 -10.84894085 -5.19210759 0 0 Z " fill="#F3CD14" transform="translate(66,4)"/>
<path d="M0 0 C8.7483973 1.22386905 13.99735995 8.90915309 19.3359375 15.375 C22.89357431 20.98704679 23.34136159 26.97881699 23.625 33.4375 C23.66367187 34.16904297 23.70234375 34.90058594 23.7421875 35.65429688 C23.83533984 37.43583532 23.91870286 39.21788122 24 41 C15.24919312 40.01691885 5.16248387 35.75028985 -1.40625 29.83203125 C-5.46991658 24.52336878 -6.53866762 19.67947847 -6 13 C-4.50312038 8.33200574 -2.72149056 4.08223585 0 0 Z " fill="#4E6154" transform="translate(23,9)"/>
<path d="M0 0 C3.96 0 7.92 0 12 0 C13.65 4.29 15.3 8.58 17 13 C18.8272911 10.25906335 19.93698178 7.86174676 21.125 4.8125 C21.74375 3.224375 22.3625 1.63625 23 0 C26.63 0 30.26 0 34 0 C33.67 1.65 33.34 3.3 33 5 C32.92463789 6.47369382 32.89172806 7.95019993 32.90234375 9.42578125 C32.90556641 10.22177734 32.90878906 11.01777344 32.91210938 11.83789062 C32.92048828 12.65451172 32.92886719 13.47113281 32.9375 14.3125 C32.94201172 15.14845703 32.94652344 15.98441406 32.95117188 16.84570312 C32.96289452 18.89716649 32.98082797 20.94859273 33 23 C33.66 23 34.32 23 35 23 C35 24.65 35 26.3 35 28 C31.04 28 27.08 28 23 28 C22.67 26.68 22.34 25.36 22 24 C22.99 23.67 23.98 23.34 25 23 C24.67 20.69 24.34 18.38 24 16 C23.72285156 16.71027344 23.44570313 17.42054687 23.16015625 18.15234375 C22.79792969 19.07144531 22.43570312 19.99054688 22.0625 20.9375 C21.70285156 21.85402344 21.34320313 22.77054688 20.97265625 23.71484375 C20 26 20 26 19 27 C17.33382885 27.04063832 15.66611905 27.042721 14 27 C13.35242375 25.56328432 12.70700547 24.12559584 12.0625 22.6875 C11.70285156 21.88699219 11.34320313 21.08648437 10.97265625 20.26171875 C10 18 10 18 9 15 C8.67 17.64 8.34 20.28 8 23 C8.99 23 9.98 23 11 23 C10.67 24.65 10.34 26.3 10 28 C6.37 28 2.74 28 -1 28 C-0.67 26.35 -0.34 24.7 0 23 C0.66 23 1.32 23 2 23 C1.98839844 22.28714844 1.97679687 21.57429688 1.96484375 20.83984375 C1.91393974 15.43674634 2.05391729 10.32171525 3 5 C2.01 4.67 1.02 4.34 0 4 C0 2.68 0 1.36 0 0 Z " fill="#485D56" transform="translate(389,59)"/>
<path d="M0 0 C4.90532389 -0.87595069 4.90532389 -0.87595069 8 0 C12.03134873 3.8136278 14.93667293 8.4050094 18 13 C18 10.36 18 7.72 18 5 C17.34 4.67 16.68 4.34 16 4 C16 2.68 16 1.36 16 0 C19.63 0 23.26 0 27 0 C26.67 1.65 26.34 3.3 26 5 C25.85917098 6.83747541 25.75560602 8.67807451 25.68359375 10.51953125 C25.64169922 11.54111328 25.59980469 12.56269531 25.55664062 13.61523438 C25.51732422 14.67033203 25.47800781 15.72542969 25.4375 16.8125 C25.39431641 17.88693359 25.35113281 18.96136719 25.30664062 20.06835938 C25.20089017 22.71212082 25.09879767 25.3559711 25 28 C22.3046875 28.375 22.3046875 28.375 19 28 C17.04072278 25.98679772 15.6472999 24.29898352 14.125 22 C13.7228125 21.42765625 13.320625 20.8553125 12.90625 20.265625 C11.9195939 18.85611629 10.95731894 17.42959628 10 16 C9.67 17.98 9.34 19.96 9 22 C9.99 22.66 10.98 23.32 12 24 C11.67 25.32 11.34 26.64 11 28 C7.37 28 3.74 28 0 28 C0 26.35 0 24.7 0 23 C0.99 23 1.98 23 3 23 C2.835 22.175 2.67 21.35 2.5 20.5 C2.11600562 17.81203936 1.9864068 15.61090764 2.0625 12.9375 C2.00348961 9.21984533 1.47210981 7.31224708 0 4 C0 2.68 0 1.36 0 0 Z " fill="#485E56" transform="translate(473,59)"/>
<path d="M0 0 C1.86328125 2.140625 1.86328125 2.140625 3 4 C0.97113038 8.94795755 -2.29599305 9.99414043 -7 12 C-7.94875 12.4125 -8.8975 12.825 -9.875 13.25 C-17.08924564 14.98141895 -23.12047966 14.43491137 -29.89453125 11.4609375 C-32 10 -32 10 -37 4 C-28.09 3.67 -19.18 3.34 -10 3 C-14.393125 3 -18.78625 3 -23.3125 3 C-28.875 3 -34.4375 3 -40 3 C-28.99897183 -6.96968178 -12.89084333 -6.16932532 0 0 Z " fill="#4B5F55" transform="translate(66,4)"/>
<path d="M0 0 C3.95152538 1.95627785 6.33305252 4.96028044 8 9 C8.78168343 14.58345308 8.28213652 19.29560432 5 24 C0.7813265 27.90999007 -2.93701208 28.73831148 -8.5234375 28.52734375 C-12.66304097 27.64588244 -15.40044667 25.26732849 -18 22 C-19.62537005 17.12388985 -19.97513558 11.76877875 -18.24609375 6.859375 C-14.18090347 -0.72898018 -7.95223341 -1.13932143 0 0 Z M-10 6 C-11.63106299 10.89318896 -11.75282177 15.23086885 -9.75 19.9375 C-8.17001719 22.08936731 -8.17001719 22.08936731 -6 22.9375 C-3.67685348 23.20376008 -3.67685348 23.20376008 -1 21 C0.52208919 16.43373244 0.66453438 12.60887271 -1.1875 8.125 C-2.85234267 5.80706195 -2.85234267 5.80706195 -5.5625 5.125 C-8.00835039 4.79899413 -8.00835039 4.79899413 -10 6 Z " fill="#485D56" transform="translate(454,59)"/>
<path d="M0 0 C7.26 0 14.52 0 22 0 C22 2.97 22 5.94 22 9 C20.68 9.33 19.36 9.66 18 10 C17.34 8.35 16.68 6.7 16 5 C14.02 5 12.04 5 10 5 C10 6.98 10 8.96 10 11 C12.97 11 15.94 11 19 11 C18.67 12.65 18.34 14.3 18 16 C15.36 16 12.72 16 10 16 C10 17.98 10 19.96 10 22 C12.31 22 14.62 22 17 22 C17.33 20.68 17.66 19.36 18 18 C19.65 18 21.3 18 23 18 C23.125 24.625 23.125 24.625 22 28 C14.74 28 7.48 28 0 28 C0 26.35 0 24.7 0 23 C0.66 23 1.32 23 2 23 C2.05394705 20.39555652 2.09364469 17.79223002 2.125 15.1875 C2.14175781 14.44951172 2.15851563 13.71152344 2.17578125 12.95117188 C2.21074628 9.08753574 2.19397555 7.29096332 0 4 C0 2.68 0 1.36 0 0 Z " fill="#495D57" transform="translate(355,59)"/>
<path d="M0 0 C7.26 0 14.52 0 22 0 C22.33 2.97 22.66 5.94 23 9 C21.35 9.33 19.7 9.66 18 10 C17.79375 9.360625 17.5875 8.72125 17.375 8.0625 C16.10461791 5.65074923 16.10461791 5.65074923 12.875 5.25 C11.92625 5.1675 10.9775 5.085 10 5 C10 6.98 10 8.96 10 11 C12.97 11 15.94 11 19 11 C19 12.65 19 14.3 19 16 C16.03 16 13.06 16 10 16 C10 17.98 10 19.96 10 22 C13.43230448 21.73606499 13.43230448 21.73606499 17 21 C17.66 20.01 18.32 19.02 19 18 C21.625 17.8125 21.625 17.8125 24 18 C23.85950482 19.47968324 23.71245174 20.95874516 23.5625 22.4375 C23.48128906 23.26121094 23.40007812 24.08492187 23.31640625 24.93359375 C23 27 23 27 22 28 C20.36527118 28.08700342 18.72685945 28.10701063 17.08984375 28.09765625 C16.10048828 28.09443359 15.11113281 28.09121094 14.09179688 28.08789062 C13.05087891 28.07951172 12.00996094 28.07113281 10.9375 28.0625 C9.89271484 28.05798828 8.84792969 28.05347656 7.77148438 28.04882812 C5.1809334 28.03699913 2.59049441 28.02051689 0 28 C0.33 26.35 0.66 24.7 1 23 C1.66 23 2.32 23 3 23 C3 17.06 3 11.12 3 5 C2.01 4.67 1.02 4.34 0 4 C0 2.68 0 1.36 0 0 Z " fill="#475C55" transform="translate(269,59)"/>
<path d="M0 0 C7.92 0 15.84 0 24 0 C24 3.3 24 6.6 24 10 C21.525 9.505 21.525 9.505 19 9 C18.67 7.68 18.34 6.36 18 5 C17.34 5 16.68 5 16 5 C16 10.94 16 16.88 16 23 C16.99 23 17.98 23 19 23 C18.67 24.65 18.34 26.3 18 28 C13.71 28 9.42 28 5 28 C5.33 26.35 5.66 24.7 6 23 C6.66 23 7.32 23 8 23 C8 17.06 8 11.12 8 5 C7.34 5 6.68 5 6 5 C5.34 6.65 4.68 8.3 4 10 C2.68 10 1.36 10 0 10 C0 6.7 0 3.4 0 0 Z " fill="#475C55" transform="translate(168,59)"/>
<path d="M0 0 C7.92 0 15.84 0 24 0 C24 3.3 24 6.6 24 10 C21.525 9.505 21.525 9.505 19 9 C18.67 7.68 18.34 6.36 18 5 C17.34 5 16.68 5 16 5 C16 10.94 16 16.88 16 23 C16.99 23 17.98 23 19 23 C18.67 24.65 18.34 26.3 18 28 C14.04 28 10.08 28 6 28 C5.67 26.68 5.34 25.36 5 24 C5.99 23.67 6.98 23.34 8 23 C8 17.06 8 11.12 8 5 C7.34 5 6.68 5 6 5 C5.34 6.65 4.68 8.3 4 10 C2.68 10 1.36 10 0 10 C0 6.7 0 3.4 0 0 Z " fill="#485D56" transform="translate(202,59)"/>
<path d="M0 0 C4.29 0 8.58 0 13 0 C13.33 1.32 13.66 2.64 14 4 C12.68 4.33 11.36 4.66 10 5 C10 10.61 10 16.22 10 22 C11.98 22 13.96 22 16 22 C16.66 20.35 17.32 18.7 18 17 C19.32 17 20.64 17 22 17 C22.0270043 18.45823212 22.04639787 19.91660675 22.0625 21.375 C22.07410156 22.18710938 22.08570313 22.99921875 22.09765625 23.8359375 C22 26 22 26 21 28 C14.07 28 7.14 28 0 28 C0 26.35 0 24.7 0 23 C0.66 23 1.32 23 2 23 C2.05380578 20.20807795 2.09357669 17.4171859 2.125 14.625 C2.14175781 13.8309375 2.15851563 13.036875 2.17578125 12.21875 C2.19335473 10.14507985 2.10335168 8.07116759 2 6 C1.34 5.34 0.68 4.68 0 4 C0 2.68 0 1.36 0 0 Z " fill="#485D56" transform="translate(112,59)"/>
<path d="M0 0 C4.62 0 9.24 0 14 0 C14 1.32 14 2.64 14 4 C12.68 4.33 11.36 4.66 10 5 C10 10.61 10 16.22 10 22 C11.98 22 13.96 22 16 22 C16.66 20.35 17.32 18.7 18 17 C19.65 17 21.3 17 23 17 C22.85957123 18.64630328 22.71250671 20.29204179 22.5625 21.9375 C22.48128906 22.85402344 22.40007812 23.77054688 22.31640625 24.71484375 C22 27 22 27 21 28 C19.43827255 28.08685603 17.87270656 28.10702219 16.30859375 28.09765625 C15.36435547 28.09443359 14.42011719 28.09121094 13.44726562 28.08789062 C11.95743164 28.07532227 11.95743164 28.07532227 10.4375 28.0625 C9.44041016 28.05798828 8.44332031 28.05347656 7.41601562 28.04882812 C4.94395151 28.03700007 2.47200482 28.02051849 0 28 C0 26.35 0 24.7 0 23 C0.66 23 1.32 23 2 23 C2 17.06 2 11.12 2 5 C1.34 4.67 0.68 4.34 0 4 C0 2.68 0 1.36 0 0 Z " fill="#495E57" transform="translate(322,59)"/>
<path d="M0 0 C4.62 0 9.24 0 14 0 C13.67 1.65 13.34 3.3 13 5 C12.01 5 11.02 5 10 5 C10 10.61 10 16.22 10 22 C11.98 21.67 13.96 21.34 16 21 C17.43637698 19.04836882 17.43637698 19.04836882 18 17 C19.65 17 21.3 17 23 17 C23.07622858 20.96388638 22.9681648 24.1273408 22 28 C15.07 28 8.14 28 1 28 C0.67 26.68 0.34 25.36 0 24 C0.99 23.67 1.98 23.34 3 23 C2.67 17.06 2.34 11.12 2 5 C1.34 4.67 0.68 4.34 0 4 C0 2.68 0 1.36 0 0 Z " fill="#485D56" transform="translate(236,59)"/>
<path d="M0 0 C4.29 0 8.58 0 13 0 C12 4 12 4 11 5 C10.84417697 6.34015221 10.74955858 7.68758903 10.68359375 9.03515625 C10.64169922 9.84404297 10.59980469 10.65292969 10.55664062 11.48632812 C10.51732422 12.33646484 10.47800781 13.18660156 10.4375 14.0625 C10.39431641 14.91650391 10.35113281 15.77050781 10.30664062 16.65039062 C10.20023298 18.76672037 10.09958269 20.88333813 10 23 C10.99 23 11.98 23 13 23 C12.67 24.65 12.34 26.3 12 28 C8.04 28 4.08 28 0 28 C0 26.35 0 24.7 0 23 C0.66 23 1.32 23 2 23 C1.85865273 20.10388456 1.7120847 17.2081919 1.5625 14.3125 C1.52318359 13.49587891 1.48386719 12.67925781 1.44335938 11.83789062 C1.40146484 11.04189453 1.35957031 10.24589844 1.31640625 9.42578125 C1.27974854 8.69786377 1.24309082 7.96994629 1.20532227 7.2199707 C0.98061224 4.79037706 0.47851613 2.39258065 0 0 Z " fill="#485D56" transform="translate(145,59)"/>
<path d="M0 0 C8.91 0 17.82 0 27 0 C27.33 0.66 27.66 1.32 28 2 C14.635 2.495 14.635 2.495 1 3 C2.32 4.65 3.64 6.3 5 8 C2 8 2 8 -0.6875 5.5 C-1.450625 4.675 -2.21375 3.85 -3 3 C-2.34 3 -1.68 3 -1 3 C-0.67 2.01 -0.34 1.02 0 0 Z " fill="#CCB323" transform="translate(29,6)"/>
<path d="M0 0 C2.30822725 2.12914065 3.78493218 4.16728374 5.25 6.9375 C7.90679382 11.87734907 10.76260684 16.6846933 13.64453125 21.49609375 C15 24 15 24 15 26 C14.34 26 13.68 26 13 26 C7.64032488 20.00489948 0 8.37730533 0 0 Z " fill="#E0C11B" transform="translate(25,15)"/>
</svg>
